<?xml version="1.0" encoding="UTF-8"?>
<svg id="Layer_1" xmlns="http://www.w3.org/2000/svg" version="1.1" viewBox="0 0 300 300">
  <!-- Generator: Adobe Illustrator 29.3.1, SVG Export Plug-In . SVG Version: 2.1.0 Build 151)  -->
  <defs>
    <style>
      .st0 {
        fill: #eb6824;
      }

      .st1 {
        fill: #9a9a9b;
      }

      .st2 {
        fill: #010101;
      }
    </style>
  </defs>
  <path class="st1" d="M118.3,170.1l.9-3.1c.9-3.3,3.1-4.4,6.1-4.4s2.7.3,3.3.7l1.3-4.4,2.4-.6-4.5,15.8h-2v-.9c-1.4.7-2.7,1.1-4.2,1.1-3.1,0-3.9-2-3.2-4.2ZM128.1,165.1c-.7-.4-1.9-.6-2.6-.6-2,0-3.4.6-4,2.8l-.8,2.7c-.5,1.7,0,2.6,1.5,2.6s2.8-.4,4.1-1l1.9-6.4Z"/>
  <path class="st1" d="M140.2,164.7c-1.4,0-3,.4-4.3,1.2l-2.3,8.2h-2.3l3.2-11.3h2v1.1c.7-.6,2.4-1.4,4.3-1.4l-.6,2.1Z"/>
  <path class="st1" d="M142.2,174.2h-2.3l3.2-11.3h2.3l-3.2,11.3ZM146,160.8h-2.3l.6-2.3h2.3l-.6,2.3Z"/>
  <path class="st1" d="M151.1,174.2h-2.6l-1-11.3h2.3l.3,6.9c0,.7,0,1.5,0,2.4h0c.6-1,1-1.7,1.5-2.4l4.3-6.9h2.4l-7.5,11.3Z"/>
  <path class="st1" d="M159.4,174.2h-2.3l3.2-11.3h2.3l-3.2,11.3ZM163.2,160.8h-2.3l.6-2.3h2.3l-.6,2.3Z"/>
  <path class="st1" d="M172.8,174.2h-2.3l2.2-7.6c.4-1.3.3-2.1-1.2-2.1s-2.6.3-4,1l-2.5,8.6h-2.3l3.2-11.3h2v.9c1.3-.7,2.8-1.1,4.1-1.1,2.7,0,3.5,1.4,2.9,3.5l-2.3,8Z"/>
  <path class="st1" d="M176.7,169.9l.8-2.8c.9-3.2,3-4.5,6-4.5s2.7.3,3.4,1l.4-.8h2l-3.4,11.8c-.8,2.8-2.3,4-6.3,4s-2.4-.1-3.1-.3l.5-1.7c.8.2,1.9.3,2.7.3,2.5,0,3.5-.5,4-2.4l.3-1.1c-1.2.6-2.7.9-4.1.9-3.2,0-3.9-2-3.2-4.4ZM186.4,165.3c-.5-.5-1.7-.8-3-.8s-2.9.6-3.6,2.9l-.7,2.5c-.5,1.8-.2,2.7,1.6,2.7s2.6-.3,3.9-.8l1.8-6.4Z"/>
  <path class="st1" d="M206.5,169.1h-8.1v.4c-.7,1.8-.4,3,2.5,3s2.3-.1,3.6-.5l-.5,1.7c-1.1.4-2.4.6-3.4.6-4,0-5.4-1.7-4.4-5.3l.4-1.3c1.1-3.8,3.4-5.2,6.4-5.2s5,1.6,3.8,5.6l-.3.9ZM204.8,167.5h0c.5-1.8,0-3.1-2.1-3.1s-3.3,1.3-3.8,3h0c0,.1,5.9.1,5.9.1Z"/>
  <path class="st1" d="M224.2,174.2h-2.3l2.2-7.7c.4-1.3.2-2-1.1-2s-2.1.3-3.5,1v.4c0,0-2.5,8.3-2.5,8.3h-2.3l2.2-7.7c.4-1.3.2-2-1.1-2s-2,.3-3.4,1l-2.5,8.6h-2.3l3.2-11.3h2v.9c1.2-.7,2.6-1.1,3.8-1.1s2.5.4,2.8,1.3c1.6-.8,3.2-1.3,4.3-1.3,2.6,0,3.3,1.1,2.7,3.2l-2.4,8.3Z"/>
  <path class="st1" d="M239,169.3c-.9,3.3-3.2,5.1-6.6,5.1s-5-1.9-4.1-5.2l.4-1.4c.9-3.3,3.2-5.1,6.6-5.1s5,1.9,4.1,5.2l-.4,1.4ZM237.2,167.8c.7-2.4-.2-3.4-2.1-3.4s-3.3.9-4,3.4l-.4,1.4c-.7,2.4.2,3.4,2.1,3.4s3.4-.9,4.1-3.4l.4-1.4Z"/>
  <path class="st1" d="M249.6,164.7h-3.2l-1.8,6.4c-.3,1.1-.2,1.5.8,1.5s1.5-.1,2.1-.3l-.5,1.7c-.7.3-1.7.5-2.4.5-2,0-2.9-1-2.4-2.8l2-6.9h-2l.5-1.8h2l.7-2.3,2.4-.6-.8,2.9h3.2l-.5,1.8Z"/>
  <path class="st1" d="M251.7,174.2h-2.3l3.2-11.3h2.3l-3.2,11.3ZM255.5,160.8h-2.3l.6-2.3h2.3l-.6,2.3Z"/>
  <path class="st1" d="M266.6,169.3c-.9,3.3-3.2,5.1-6.6,5.1s-5-1.9-4.1-5.2l.4-1.4c.9-3.3,3.2-5.1,6.6-5.1s5,1.9,4.1,5.2l-.4,1.4ZM264.8,167.8c.7-2.4-.2-3.4-2.1-3.4s-3.3.9-4,3.4l-.4,1.4c-.7,2.4.2,3.4,2.1,3.4s3.4-.9,4.1-3.4l.4-1.4Z"/>
  <path class="st1" d="M278,174.2h-2.3l2.2-7.6c.4-1.3.3-2.1-1.2-2.1s-2.6.3-4,1l-2.5,8.6h-2.3l3.2-11.3h2v.9c1.3-.7,2.8-1.1,4.1-1.1,2.7,0,3.5,1.4,2.9,3.5l-2.3,8Z"/>
  <path class="st2" d="M274.8,139.5l5.7,13.5h-9.6l-5.2-14-4,14h-9.2l8.1-28.1h9.2l-3.5,12.2s5.7-3,10.1-12.2h9.8c-4.7,10.1-11.4,14.6-11.4,14.6Z"/>
  <path class="st2" d="M159.8,133l-5.6,20h-9.2l5.1-18.2c.4-1.6.7-2.8.1-3.4-.6-.5-1.4-.6-2.3-.6h-4.8c0,.1-6.3,22.1-6.3,22.1h-9.2l8-28.1c1.1,0,9.3-.4,17.5-.6,3.1,0,5.3.6,6.4,2.1,1.1,1.4,1.3,3.7.4,6.6Z"/>
  <path class="st2" d="M181.8,139.5l5.7,13.5h-9.6l-5.2-14-4,14h-9.2l8.1-28.1h9.2l-3.5,12.2s5.7-3,10.1-12.2h9.8c-4.7,10.1-11.4,14.6-11.4,14.6Z"/>
  <path class="st2" d="M219.8,127.7c-1.7-2.3-5.1-3.4-10.1-3.4-9.6,0-15.7,4.3-18.1,12.7l-1.2,4.1c-1.1,4-.9,7.1.7,9.2,1.7,2.3,5.1,3.4,10.1,3.4,9.6,0,15.7-4.3,18.1-12.7l1.2-4.1c1.1-4,.9-7.1-.7-9.2ZM211.1,137.3l-1,3.4c-1.3,4.5-3.4,6.4-6.9,6.4s-2.7-.4-3.3-1.2c-.8-1-.8-2.7,0-5.3l1-3.4c1.3-4.5,3.4-6.4,6.9-6.4s2.7.4,3.3,1.2c.8,1,.8,2.7,0,5.3Z"/>
  <path class="st2" d="M252.3,127.7c-1.7-2.3-5.1-3.4-10.1-3.4-9.6,0-15.7,4.3-18.1,12.7l-1.2,4.1c-1.1,4-.9,7.1.7,9.2,1.7,2.3,5.1,3.4,10.1,3.4,9.6,0,15.7-4.3,18.1-12.7l1.2-4.1c1.1-4,.9-7.1-.7-9.2ZM243.6,137.3l-1,3.4c-1.3,4.5-3.4,6.4-6.9,6.4s-2.7-.4-3.3-1.2c-.8-1-.8-2.7,0-5.3l1-3.4c1.3-4.5,3.4-6.4,6.9-6.4s2.7.4,3.3,1.2c.8,1,.8,2.7,0,5.3Z"/>
  <path class="st2" d="M127.7,128c-.7-1.3-2-2.2-4-2.9-1.5-.5-3.4-.7-5.7-.8,0,0-8.3-.1-13.2.8l-1.6,5.6c5-.6,9.7-.7,11.7-.7,2.2,0,3.3.4,3.8,1,.4.6.5,1.4,0,3l-.3,1.1h-3.5c-9.8,0-15.6,1.2-17.3,7.8-.7,2.5-.4,5.2,1.1,7,1.5,2,3.6,3,7.2,3h16.5l5.3-18.3c.9-2.9.9-5.1,0-6.7ZM114.9,147.3h-4.5c-1.1.1-2.2.2-3-.7-.6-.6-.9-1.6-.7-2.6.6-2.8,3.9-3.3,6.6-3.3h3.6l-1.9,6.6Z"/>
  <polygon class="st2" points="89.8 124.9 86.8 135.5 78.5 135.5 81.5 124.9 72.2 124.9 64.2 153 73.5 153 76.7 141.9 85 141.9 81.8 153 91.1 153 99.1 124.9 89.8 124.9"/>
  <path class="st0" d="M58.8,121c-1,9.8-7,18.2-15.5,22.7-.2.1-.5-.2-.3-.4,6.5-5.4,10.8-13.4,11.2-22.4h-8.3c-1,7.6-5.8,14.1-12.5,17.4-.2.1-.4-.2-.2-.4,4.8-4.3,8-10.3,8.4-17.1h-8.3c-.6,3.5-2.4,6.5-4.6,9-5.6,6.1-14.7,6.8-19.1,6.5,0,0-.2,0-.3.1,0,.2.1.3.1.3,7.3,4.1,13.1,8,23.7,15.8,2.6,1.9,5.1,2.5,7.6,1.9,16.5-3.9,26.1-21,26.2-33.5h-8.3Z"/>
</svg>