<?xml version="1.0" encoding="utf-8"?>
<!-- Generator: Adobe Illustrator 19.2.1, SVG Export Plug-In . SVG Version: 6.00 Build 0)  -->
<svg version="1.1" id="layer" xmlns="http://www.w3.org/2000/svg" xmlns:xlink="http://www.w3.org/1999/xlink" x="0px" y="0px"
	 viewBox="0 0 652 652" style="enable-background:new 0 0 652 652;" xml:space="preserve">
<style type="text/css">
	.st0{fill:#36288A;}
	.st1{fill:#15225D;}
</style>
<path class="st0" d="M606,319.4l9-29.5c3.3-10.7-2.8-19.4-13.5-19.4h-51.8c-2.7,0-5.5,2.2-6.3,4.9L530,319.4h-12.2l9-29.5
	c3.3-10.7-2.7-19.4-13.4-19.4h-51.8c-2.7,0-5.5,2.2-6.3,4.9l-12.3,40.4h-52.1c-2.7,0-4.2-2.2-3.4-4.9l2.6-8.6h43.4
	c2.7,0,5.5-2.2,6.3-4.9l2.3-7.5c3.3-10.7-2.7-19.4-13.4-19.4h-37.3c-10.7,0-22,8.7-25.3,19.4l-1,3.2l-45.3,0l1.9-6.2
	c1.2-4,5.5-7.3,9.5-7.3h27.3c2.1-4.2,4.9-6.7,8.3-9.1l0,0h-54.8c-7.2,0-14.9,5.9-17.1,13.1l-10.9,35.8h-12.9l13.2-43.2
	c0.8-2.7-0.7-4.9-3.4-4.9h-22.9l-13.5,44.5h-10.8c-5.4,0-8.4-4.3-6.7-9.7l10.8-35.6h-27.8l-10.7,35c-1.7,5.5-0.9,10.4,1.6,13.9h-8.9
	c-8.8,0-7-9.2-5.8-13l0.3-0.9l4.7-15.6c3.3-10.7-2.8-19.4-13.4-19.4h-51.8l-2.8,9.2h38.5c2.7,0,4.2,2.2,3.4,4.8l-2.1,6.8h-33.7
	c-8,0-16.5,6.5-19,14.6l-1.4,4.5c-0.3,1.1-0.5,2.1-0.6,3.1c-0.2,6.4,2.6,8.1,2.6,8.1H104c-2.5,0-6.5-0.4-8.1-5.8H70.1
	c-5.3,0-8.4-4.3-6.7-9.7l10.8-35.6H17.5l-1.7,5.5h28.9l-9,29.5c-3.3,10.7,2.8,19.4,13.4,19.4h111.8c4.8,0,9.7-1.7,13.9-4.6
	c1.5,2.5,4.5,4.6,10.4,4.6H310l6.9-22.6h45.3l-1,3.2c-3.3,10.7,2.8,19.4,13.4,19.4h93.2l13.8-45.3h10.8c5.4,0,8.3,4.3,6.7,9.7
	l-10.8,35.6h67.8l13.8-45.3h10.8c5.3,0,8.4,4.3,6.7,9.7l-10.8,35.6h61.3l1.7-5.5 M393.9,289.3c1.6-5.4,7.3-9.7,12.6-9.7h1.1
	c5.4,0,8.4,4.3,6.7,9.7l-1.2,3.8h-20.4L393.9,289.3z M158.4,306c-1.6,5.4-7.3,9.7-12.6,9.7h-5.9c-2.7,0-4.2-2.2-3.4-4.9l1.7-5.6
	c0.8-2.7,3.6-4.9,6.3-4.9h15.6L158.4,306z"/>
<path class="st1" d="M158.6,368.7c0,2.5-0.8,4.4-2.5,5.7c-1.6,1.3-3.9,2-6.6,2c-0.7,0-1.6-0.1-2.7-0.2c-1.1-0.1-2-0.2-2.8-0.4v-3.5
	h0.2c0.6,0.2,1.3,0.4,2.1,0.5c0.8,0.2,1.7,0.3,2.6,0.3c1.3,0,2.3-0.1,3-0.4c0.7-0.3,1.3-0.6,1.7-1.1c0.4-0.5,0.6-1.1,0.7-1.9
	c0.1-0.7,0.2-1.6,0.2-2.5v-16.4H148v-3h10.6"/>
<path class="st1" d="M184.1,365.5c0-2.7-0.6-4.7-1.8-6.1c-1.2-1.3-2.8-2-4.9-2c-2.1,0-3.8,0.7-4.9,2c-1.2,1.3-1.7,3.4-1.7,6.1
	c0,2.6,0.6,4.6,1.8,6c1.2,1.4,2.8,2,4.9,2c2.1,0,3.7-0.7,4.9-2C183.5,370.2,184.1,368.1,184.1,365.5 M188.2,365.5
	c0,3.4-1,6.1-2.9,8.1c-1.9,2-4.5,3-7.8,3c-3.3,0-5.9-1-7.8-3c-1.9-2-2.9-4.7-2.9-8.1c0-3.4,1-6.1,2.9-8.1c1.9-2,4.5-3,7.8-3
	c3.2,0,5.8,1,7.8,3C187.2,359.3,188.2,362.1,188.2,365.5"/>
<path class="st1" d="M215.5,376h-3.9v-2.3c-1.3,0.9-2.6,1.7-3.8,2.2c-1.2,0.5-2.5,0.8-4,0.8c-2.4,0-4.3-0.7-5.7-2
	c-1.4-1.4-2-3.3-2-5.9v-13.7h3.9v12c0,1.1,0.1,2,0.2,2.7c0.1,0.8,0.3,1.4,0.7,2l1.4,1.2c0.6,0.2,1.5,0.4,2.6,0.4
	c1,0,2.1-0.2,3.3-0.7c1.2-0.5,2.3-1.1,3.3-1.8v-15.7h3.9"/>
<path class="st1" d="M239.8,358.8h-0.2l-1.7-0.3c-0.5-0.1-1.2-0.1-1.9-0.1c-1.2,0-2.4,0.3-3.5,0.7c-1.1,0.5-2.2,1.1-3.2,1.9V376
	h-3.9v-21.1h3.9v3.1c1.5-1.1,2.9-1.9,4.1-2.4c1.2-0.5,2.4-0.7,3.6-0.7c0.7,0,1.2,0,1.5,0.1l1.4,0.2"/>
<path class="st1" d="M266.6,376h-3.9v-12c0-1-0.1-1.9-0.2-2.7c-0.1-0.8-0.4-1.5-0.7-2l-1.5-1.2c-0.7-0.3-1.5-0.4-2.5-0.4
	c-1.1,0-2.2,0.2-3.3,0.7c-1.2,0.5-2.3,1.1-3.3,1.8V376h-3.9v-21.1h3.9v2.3c1.2-0.9,2.5-1.6,3.8-2.1c1.3-0.5,2.6-0.8,4-0.8
	c2.5,0,4.4,0.7,5.7,2.1c1.3,1.4,2,3.3,2,5.9"/>
<path class="st1" d="M291.8,363.1c0-1.9-0.5-3.3-1.5-4.3c-1-1-2.6-1.5-4.6-1.5c-2.1,0-3.8,0.6-5,1.7s-1.9,2.5-2.1,4.2 M295.6,365.8
	h-17.1c0,1.3,0.2,2.4,0.6,3.4c0.4,1,1,1.8,1.8,2.4c0.7,0.6,1.6,1.1,2.6,1.4c1,0.3,2.1,0.5,3.3,0.5c1.6,0,3.2-0.3,4.7-0.9
	c1.6-0.6,2.7-1.1,3.4-1.7h0.2v3.9c-1.3,0.5-2.7,0.9-4,1.3c-1.4,0.3-2.8,0.5-4.3,0.5c-3.8,0-6.8-0.9-9-2.8c-2.2-1.9-3.2-4.6-3.2-8
	c0-3.5,1-6.2,3.1-8.2c2.1-2,4.8-3,8.2-3c3.1,0,5.5,0.8,7.2,2.5c1.7,1.6,2.5,4,2.5,7.1V365.8z"/>
<polyline class="st1" points="323.6,354.9 310.1,383.8 305.9,383.8 310.3,375 301,354.9 305.3,354.9 312.4,370.5 319.5,354.9 "/>
<path class="st1" d="M343.7,376h3.9v-21.1h-3.9V376z M343.4,351.4h4.4v-3.7h-4.4V351.4z"/>
<g>
	<path class="st1" d="M376.8,376h-3.9v-12c0-1-0.1-1.9-0.2-2.7c-0.1-0.8-0.4-1.5-0.7-2l-1.5-1.2c-0.7-0.3-1.5-0.4-2.5-0.4
		c-1.1,0-2.2,0.2-3.3,0.7c-1.2,0.5-2.3,1.1-3.3,1.8V376h-3.9v-21.1h3.9v2.3c1.2-0.9,2.5-1.6,3.8-2.1c1.3-0.5,2.6-0.8,4-0.8
		c2.5,0,4.4,0.7,5.7,2.1c1.3,1.4,2,3.3,2,5.9"/>
	<path class="st1" d="M422,368c0,1.1-0.3,2.2-0.8,3.2c-0.6,1.1-1.3,2-2.3,2.7c-1.1,0.8-2.4,1.4-3.9,1.9c-1.5,0.4-3.2,0.7-5.3,0.7
		c-2.2,0-4.2-0.2-6-0.6c-1.8-0.4-3.6-0.9-5.4-1.7v-4.7h0.3c1.6,1.2,3.4,2.1,5.4,2.7c2,0.6,4,1,5.8,1c2.5,0,4.5-0.4,5.9-1.3
		c1.4-0.9,2.1-2,2.1-3.5c0-1.2-0.3-2.2-1-2.7c-0.7-0.6-1.7-1.1-3.1-1.4c-1-0.3-2.2-0.5-3.4-0.6c-1.2-0.2-2.5-0.4-3.8-0.6
		c-2.7-0.5-4.8-1.4-6.1-2.7c-1.3-1.3-2-2.9-2-5c0-2.3,1.1-4.3,3.3-5.8c2.2-1.5,5-2.2,8.3-2.2c2.2,0,4.2,0.2,6,0.6
		c1.8,0.4,3.4,0.8,4.8,1.4v4.4h-0.3c-1.2-0.9-2.7-1.7-4.6-2.3c-1.9-0.6-3.9-0.9-5.9-0.9c-2.2,0-4,0.4-5.3,1.2c-1.3,0.8-2,1.9-2,3.2
		c0,1.2,0.3,2.1,1,2.8c0.7,0.7,1.8,1.2,3.5,1.5c0.9,0.2,2.1,0.4,3.8,0.6c1.6,0.3,3,0.5,4.1,0.8c2.3,0.5,4,1.4,5.2,2.5
		C421.4,364.4,422,366,422,368"/>
	<path class="st1" d="M444,375.8c-0.7,0.2-1.5,0.3-2.4,0.4c-0.9,0.1-1.6,0.2-2.3,0.2c-2.4,0-4.2-0.6-5.4-1.7c-1.2-1.2-1.8-3-1.8-5.6
		v-11.2h-2.6v-3h2.6v-6h3.9v6h8v3h-8v9.6c0,1.1,0,2,0.1,2.6l0.6,1.7l1.3,1.1c0.5,0.2,1.3,0.4,2.4,0.4c0.6,0,1.3-0.1,2-0.3
		c0.7-0.2,1.2-0.3,1.5-0.4h0.2"/>
</g>
<polyline class="st1" points="472.5,354.9 459,383.8 454.8,383.8 459.2,375 449.9,354.9 454.2,354.9 461.3,370.5 468.4,354.9 "/>
<rect x="479.8" y="346.7" class="st1" width="3.9" height="29.3"/>
<g>
	<path class="st1" d="M509.1,363.1c0-1.9-0.5-3.3-1.5-4.3c-1-1-2.6-1.5-4.6-1.5c-2.1,0-3.8,0.6-5,1.7c-1.2,1.1-1.9,2.5-2.1,4.2
		 M512.9,365.8h-17.1c0,1.3,0.2,2.4,0.6,3.4c0.4,1,1,1.8,1.8,2.4c0.7,0.6,1.6,1.1,2.6,1.4c1,0.3,2.1,0.5,3.3,0.5
		c1.6,0,3.2-0.3,4.7-0.9c1.6-0.6,2.7-1.1,3.4-1.7h0.2v3.9c-1.3,0.5-2.7,0.9-4,1.3c-1.4,0.3-2.8,0.5-4.3,0.5c-3.8,0-6.8-0.9-9-2.8
		c-2.2-1.9-3.2-4.6-3.2-8c0-3.5,1-6.2,3.1-8.2c2.1-2,4.8-3,8.2-3c3.1,0,5.5,0.8,7.2,2.5c1.7,1.6,2.5,4,2.5,7.1V365.8z"/>
</g>
</svg>
