<?xml version="1.0" encoding="UTF-8"?>
<!DOCTYPE svg PUBLIC "-//W3C//DTD SVG 1.1//EN" "http://www.w3.org/Graphics/SVG/1.1/DTD/svg11.dtd">
<!-- Creator: CorelDRAW 2019 (64-Bit) -->
<svg xmlns="http://www.w3.org/2000/svg" xml:space="preserve" width="199.922mm" height="28.4797mm" version="1.1" style="shape-rendering:geometricPrecision; text-rendering:geometricPrecision; image-rendering:optimizeQuality; fill-rule:evenodd; clip-rule:evenodd"
viewBox="0 0 199.9186 28.4792"
 xmlns:xlink="http://www.w3.org/1999/xlink"
 xmlns:xodm="http://www.corel.com/coreldraw/odm/2003">
 <defs>
  <style type="text/css">
   <![CDATA[
    .fil0 {fill:#E01E28}
    .fil1 {fill:#232021}
   ]]>
  </style>
 </defs>
 <g id="Layer_x0020_1">
  <metadata id="CorelCorpID_0Corel-Layer"/>
  <g id="_743989248">
   <path class="fil0" d="M-0 0l14.2347 14.2347 0.0564 0.0473 -0.0564 0.0748 -14.1409 14.1225 2.4995 0 14.1881 -14.1973 -14.2819 -14.2728 -2.4995 -0.0092zm11.2937 0l0 0 14.2917 14.282 -14.1881 14.1973 -2.5089 0 14.1411 -14.1225 0.0373 -0.0748 -0.0373 -0.0473 -14.2447 -14.2255 2.5089 -0.0092zm1.8982 0l0 0 2.4995 0 14.282 14.282 -14.179 14.1973 -2.4989 0 14.1218 -14.1225 0.0566 -0.0748 -0.0566 -0.0473 -14.2254 -14.2347zm4.3877 0l0 0 14.282 14.282 -0.0472 0.0748 -14.1312 14.1225 2.4992 0c0.0466,-0.044 14.2445,-14.2446 14.2445,-14.2446l14.2347 -14.2347 -2.5087 0 -12.9853 12.9761 -0.0467 0.0563 -0.0564 -0.0563 -0.8361 -0.8271 -0.0664 -0.0564 0.0664 -0.0565 12.036 -12.0361 -2.5087 0 -10.8335 10.8431 -0.0562 -0.0565 -0.8363 -0.827 -0.0564 -0.0656 9.8935 -9.8848 -2.4992 0 -8.5784 8.5789 -0.066 0.0657 -0.0565 -0.0657 -0.8362 -0.8362 -0.0563 -0.0472 0.0563 -0.0564 7.6581 -7.6391 -2.5088 -0.0092 -6.3896 6.3988 -0.0657 0.0467 -0.0565 -0.0564 -0.8362 -0.8266 -0.0564 -0.0661 0.0564 -0.0558 5.4406 -5.4314 -2.4903 0 -4.1998 4.172 -0.0472 0.0657 -0.0563 -0.0657 -4.1905 -4.172 -2.5089 -0.0092zm-13.1826 0.0092l0 0 2.4996 0 14.2911 14.2728 -14.1876 14.1973 -2.4904 0 14.113 -14.1225 0.066 -0.0748 -0.066 -0.0473 -14.2257 -14.2255z"/>
   <path class="fil1" d="M73.2979 3.3732c-6.0641,0 -10.9933,4.9366 -10.9933,11.0117 0,6.0636 4.9292,10.9932 10.9933,10.9932 6.0669,0 10.9935,-4.9296 10.9935,-10.9932 0,-6.0751 -4.9163,-11.0117 -10.9935,-11.0117zm22.3436 0l0 0 -6.6522 9.2172 0 -9.2081 -3.7678 0 0 21.62 3.7678 0 0 -8.907 6.3234 8.907 4.7355 0 -8.0431 -10.5984 8.3626 -11.0307 -4.7262 0zm12.2054 0l0 0c6.0669,0 11.0025,4.9345 11.0025,10.9932 0.006,6.0804 -4.9282,11.0117 -11.0025,11.0117 -6.0731,0 -11.0079,-4.9313 -11.0025,-11.0117 0,-6.0587 4.9294,-10.9932 11.0025,-10.9932zm-59.8053 0.1875l0 0 4.0403 0 4.5572 9.3306 4.5472 -9.3306 4.0403 0 -6.812 13.5492 0 8.0806 -3.5609 0 0 -8.0806 -6.8122 -13.5492zm71.7476 0l0 0 0 21.6297 3.852 0 0 -8.7475 7.7612 0 0 8.7475 3.8434 0 0 -21.6297 -3.8434 0 0 9.1707 -7.7612 0 0 -9.1707 -3.852 0zm24.2795 0l0 0 -7.9872 21.6297 4.0316 0 2.0006 -5.5251 7.7707 0 1.9729 5.5251 4.0496 0 -7.9858 -21.6297 -3.8524 0zm12.6462 0l0 0 0 21.6297 3.8526 0 0.0653 -14.1408 5.4132 14.1408 3.5887 0 5.402 -14.1408 0.0666 14.1408 3.8609 0 0 -21.6297 -4.7535 0 -6.3614 16.5841 -6.3892 -16.5841 -4.7453 0zm31.3543 0l0 0 -7.9858 21.6297 4.0497 0 1.9826 -5.5251 7.7706 0 1.9922 5.5251 4.0401 0 -7.9775 -21.6297 -3.8719 0zm-80.2132 3.4014l0 0c-4.0902,0 -7.4227,3.3228 -7.4227,7.4043 0,4.0955 3.3287,7.4135 7.4136,7.4135 4.0901,0 7.4097,-3.3179 7.4042,-7.4135 0,-4.0814 -3.3023,-7.4043 -7.3951,-7.4043zm-34.5581 0.0099l0 0c4.0924,0 7.4039,3.32 7.4039,7.4129 0,4.0787 -3.3114,7.4042 -7.4039,7.4042 -4.0814,0 -7.4041,-3.3254 -7.4041,-7.4042 0,-4.0928 3.3226,-7.4129 7.4041,-7.4129zm116.7079 2.2923l0 0 2.7142 7.3663 -5.4393 0 2.7252 -7.3663zm-44.0199 0.0093l0 0 2.7239 7.357 -5.431 0 2.7072 -7.357z"/>
  </g>
 </g>
</svg>
